<?xml version="1.0" encoding="UTF-8"?>
<svg id="Layer_4" data-name="Layer 4" xmlns="http://www.w3.org/2000/svg" xmlns:xlink="http://www.w3.org/1999/xlink" viewBox="0 0 590.31 471.38">
  <defs>
    <style>
      .cls-1 {
        fill: url(#linear-gradient);
      }
    </style>
    <linearGradient id="linear-gradient" x1="295.15" y1="0" x2="295.15" y2="471.38" gradientUnits="userSpaceOnUse">
      <stop offset=".22" stop-color="#a2d9a6"/>
      <stop offset="1" stop-color="#30634a"/>
    </linearGradient>
  </defs>
  <path class="cls-1" d="M0,.15h98.74c5.91,0,11.8.78,17.48,2.43,9.41,2.73,22.05,8.38,29.12,19.82,11.67,18.88,191.22,337.49,207.49,366.36.96,1.71,1.72,3.51,2.26,5.39,3,10.42,9.29,43.19-21.75,65.36-37.33,26.67-73.56,1.89-83.33-11.11C240.66,435.98,0,.15,0,.15ZM284.36,147.04c-5.06,0-9.17,4.1-9.17,9.17s4.1,9.17,9.17,9.17,9.17-4.1,9.17-9.17-4.1-9.17-9.17-9.17ZM320.14,238.13c-5.52,0-10,4.48-10,10s4.48,10,10,10,10-4.48,10-10-4.48-10-10-10ZM336.95,204.97c-5.52,0-10,4.48-10,10s4.48,10,10,10,10-4.48,10-10-4.48-10-10-10ZM424.36,41.37c-5.12,0-9.28,4.15-9.28,9.28s4.15,9.28,9.28,9.28,9.28-4.15,9.28-9.28-4.15-9.28-9.28-9.28ZM509.97,100.15c-5.15,0-9.33,4.18-9.33,9.33s4.18,9.33,9.33,9.33,9.33-4.18,9.33-9.33-4.18-9.33-9.33-9.33ZM581.14,184.04c-5.06,0-9.17,4.1-9.17,9.17s4.1,9.17,9.17,9.17,9.17-4.1,9.17-9.17-4.1-9.17-9.17-9.17ZM495.47,136.28h0c-4.83-2.45-10.73-.52-13.17,4.31l-32.19,63.48c-2.45,4.83-.52,10.73,4.31,13.17h0c4.83,2.45,10.73.52,13.17-4.31l32.19-63.48c2.45-4.83.52-10.73-4.31-13.17ZM387.83,114.64h0c-4.83-2.45-10.73-.52-13.17,4.31l-32.19,63.48c-2.45,4.83-.52,10.73,4.31,13.17h0c4.83,2.45,10.73.52,13.17-4.31l32.19-63.48c2.45-4.83.52-10.73-4.31-13.17ZM331.28,140.56h0c-4.83-2.45-10.73-.52-13.17,4.31l-9.37,18.47c-2.45,4.83-.52,10.73,4.31,13.17h0c4.83,2.45,10.73.52,13.17-4.31l9.37-18.47c2.45-4.83.52-10.73-4.31-13.17ZM498.62,51.35h0c-4.83-2.45-10.73-.52-13.17,4.31l-110.29,217.49c-2.45,4.83-.52,10.73,4.31,13.17h0c4.83,2.45,10.73.52,13.17-4.31l110.29-217.49c2.45-4.83.52-10.73-4.31-13.17ZM422.22,127.89h0c-4.83-2.45-10.73-.52-13.17,4.31l-28.51,56.22c-2.45,4.83-.52,10.73,4.31,13.17h0c4.83,2.45,10.73.52,13.17-4.31l28.51-56.22c2.45-4.83.52-10.73-4.31-13.17ZM411.15,68.66h0c-4.83-2.45-10.73-.52-13.17,4.31l-8.06,15.9c-2.45,4.83-.52,10.73,4.31,13.17h0c4.83,2.45,10.73.52,13.17-4.31l8.06-15.9c2.45-4.83.52-10.73-4.31-13.17ZM374.33,296.44h0c-4.83-2.45-10.73-.52-13.17,4.31l-5.5,10.84c-2.45,4.83-.52,10.73,4.31,13.17h0c4.83,2.45,10.73.52,13.17-4.31l5.5-10.84c2.45-4.83.52-10.73-4.31-13.17ZM444.17,234.74h0c-4.83-2.45-10.73-.52-13.17,4.31l-7.07,13.94c-2.45,4.83-.52,10.73,4.31,13.17h0c4.83,2.45,10.73.52,13.17-4.31l7.07-13.94c2.45-4.83.52-10.73-4.31-13.17ZM521.6,160.56h0c-4.83-2.45-10.73-.52-13.17,4.31l-16.2,31.94c-2.45,4.83-.52,10.73,4.31,13.17h0c4.83,2.45,10.73.52,13.17-4.31l16.2-31.94c2.45-4.83.52-10.73-4.31-13.17ZM554.48,174.13h0c-4.83-2.45-10.73-.52-13.17,4.31l-5.72,11.28c-2.45,4.83-.52,10.73,4.31,13.17h0c4.83,2.45,10.73.52,13.17-4.31l5.72-11.28c2.45-4.83.52-10.73-4.31-13.17ZM524.13,1.06h0c-4.83-2.45-10.73-.52-13.17,4.31l-9.18,18.11c-2.45,4.83-.52,10.73,4.31,13.17h0c4.83,2.45,10.73.52,13.17-4.31l9.18-18.11c2.45-4.83.52-10.73-4.31-13.17ZM368.42,411.7s53.78-111.33,58-119.11-4.44-12.22-4.44-12.22c-1.93-1.26-3.93-1.51-5.74-1.28-3.47.44-6.44,2.73-8.02,5.85l-49.58,97.87,9.78,28.89Z"/>
</svg>